<svg width="34" height="32" viewBox="0 0 34 32" fill="none" xmlns="http://www.w3.org/2000/svg">
<path d="M31.5496 30.171H2.45045C1.11036 30.171 0 29.0606 0 27.7205V8.95924C0 7.61915 1.11036 6.50879 2.45045 6.50879H31.5496C32.8896 6.50879 34 7.61915 34 8.95924V27.7205C34 29.0606 32.9279 30.171 31.5496 30.171ZM2.45045 7.08311C1.41666 7.08311 0.536034 7.92546 0.536034 8.99753V27.7588C0.536034 28.7926 1.37838 29.6732 2.45045 29.6732H31.5496C32.5833 29.6732 33.464 28.8309 33.464 27.7588V8.99753C33.464 7.96374 32.6216 7.08311 31.5496 7.08311H2.45045Z" fill="#004E97"/>
<path d="M9.26576 22.8197H0.268011C0.114858 22.8197 0 22.7049 0 22.5517C0 22.3985 0.114858 22.2837 0.268011 22.2837H9.26576C9.41891 22.2837 9.53378 22.3985 9.53378 22.5517C9.53378 22.6666 9.41891 22.8197 9.26576 22.8197Z" fill="#004E97"/>
<path d="M7.42793 26.8017H0.268011C0.114858 26.8017 0 26.6868 0 26.5336C0 26.3805 0.114858 26.2656 0.268011 26.2656H7.42793C7.58108 26.2656 7.69595 26.3805 7.69595 26.5336C7.69595 26.6485 7.58108 26.8017 7.42793 26.8017Z" fill="#004E97"/>
<path d="M26.5336 7.08316H7.50435C7.3512 7.08316 7.23633 6.9683 7.23633 6.81515V1.22505C7.23633 1.0719 7.3512 0.957031 7.50435 0.957031H11.6395C11.7926 0.957031 11.9075 1.0719 11.9075 1.22505V2.29712H22.0539V1.22505C22.0539 1.0719 22.1688 0.957031 22.3219 0.957031H26.4953C26.6485 0.957031 26.7634 1.0719 26.7634 1.22505V6.81515C26.8016 6.9683 26.6868 7.08316 26.5336 7.08316ZM7.77236 6.50883H26.2656V1.49306H22.6665V2.56514C22.6665 2.7183 22.5516 2.83316 22.3985 2.83316H11.6778C11.5246 2.83316 11.4097 2.7183 11.4097 2.56514V1.49306H7.81065V6.50883H7.77236Z" fill="#004E97"/>
<path d="M22.3603 2.83333H11.6396C11.4865 2.83333 11.3716 2.71847 11.3716 2.56532V0.268023C11.3716 0.11487 11.4865 0 11.6396 0H22.3603C22.5135 0 22.6283 0.11487 22.6283 0.268023V2.56532C22.6283 2.71847 22.5135 2.83333 22.3603 2.83333ZM11.9076 2.2973H22.054V0.536034H11.9076V2.2973Z" fill="#004E97"/>
<path d="M17 18.6465C16.9617 18.6465 16.8851 18.6465 16.8468 18.6082L0.765751 7.69601C0.689174 7.65772 0.650879 7.58115 0.650879 7.50457C0.650879 7.42799 0.689172 7.35142 0.72746 7.27484C1.18692 6.81538 1.79953 6.54736 2.45043 6.54736H31.5495C32.2004 6.54736 32.813 6.81538 33.2725 7.27484C33.3491 7.35142 33.3491 7.42799 33.3491 7.50457C33.3491 7.58115 33.3108 7.65772 33.2342 7.69601L17.1531 18.6082C17.1148 18.6082 17.0383 18.6465 17 18.6465ZM1.37837 7.38971L17 17.9956L32.6216 7.38971C32.3153 7.15998 31.9324 7.04511 31.5495 7.04511H2.45043C2.06755 7.08339 1.68467 7.19827 1.37837 7.38971Z" fill="#004E97"/>
<path d="M21.8624 20.599H12.1372C11.984 20.599 11.8691 20.4841 11.8691 20.331V15.0855C11.8691 14.9706 11.9074 14.8941 12.0223 14.8558C12.0989 14.8175 12.2137 14.8175 12.2903 14.8558L16.9998 18.0337L21.7092 14.8558C21.7858 14.7792 21.9007 14.7792 22.0155 14.8558C22.0921 14.8941 22.1687 15.0089 22.1687 15.0855V20.331C22.1304 20.4459 22.0155 20.599 21.8624 20.599ZM12.4052 20.0247H21.5944V15.5832L17.1912 18.5697C17.1146 18.6463 16.9615 18.6463 16.8849 18.5697L12.4818 15.5832V20.0247H12.4052Z" fill="#004E97"/>
<path d="M9.38073 31.9326H5.05414C4.90099 31.9326 4.78613 31.8177 4.78613 31.6645V29.9033C4.78613 29.7501 4.90099 29.6353 5.05414 29.6353H9.38073C9.53388 29.6353 9.64874 29.7501 9.64874 29.9033V31.6645C9.64874 31.8177 9.53388 31.9326 9.38073 31.9326ZM5.32217 31.3582H9.07441V30.1713H5.32217V31.3582Z" fill="#004E97"/>
<path d="M28.9457 31.9326H24.6191C24.4659 31.9326 24.3511 31.8177 24.3511 31.6645V29.9033C24.3511 29.7501 24.4659 29.6353 24.6191 29.6353H28.9457C29.0988 29.6353 29.2137 29.7501 29.2137 29.9033V31.6645C29.2137 31.8177 29.0988 31.9326 28.9457 31.9326ZM24.8871 31.3582H28.6394V30.1713H24.8871V31.3582Z" fill="#004E97"/>
</svg>
