<svg width="44" height="36" viewBox="0 0 44 36" fill="none" xmlns="http://www.w3.org/2000/svg">
<path d="M31.3154 35.6552H12.6847C12.4865 35.6552 12.3379 35.5075 12.3379 35.3105V12.2627C12.3379 12.0657 12.4865 11.918 12.6847 11.918H31.3154C31.5136 11.918 31.6622 12.0657 31.6622 12.2627V35.2613C31.6622 35.4583 31.5136 35.6552 31.3154 35.6552ZM13.0316 34.9165H30.919V12.5582H13.0316V34.9165Z" fill="#004E97"/>
<path d="M28.243 12.5579H15.7565C15.5583 12.5579 15.4097 12.4102 15.4097 12.2132V7.18995C15.4097 6.99296 15.5583 6.84521 15.7565 6.84521H28.243C28.4412 6.84521 28.5898 6.99296 28.5898 7.18995V12.2132C28.5898 12.4102 28.4412 12.5579 28.243 12.5579ZM16.1034 11.8685H27.8962V7.58393H16.1034V11.8685Z" fill="#004E97"/>
<path d="M22.0002 7.58411C21.802 7.58411 21.6533 7.43637 21.6533 7.23938V0.344738C21.6533 0.147748 21.802 0 22.0002 0C22.1984 0 22.347 0.147748 22.347 0.344738V7.23938C22.347 7.38713 22.1984 7.58411 22.0002 7.58411Z" fill="#004E97"/>
<path d="M26.36 35.6554H17.6393C17.4411 35.6554 17.2925 35.5076 17.2925 35.3106V25.6089C17.2925 25.4119 17.4411 25.2642 17.6393 25.2642H26.36C26.5582 25.2642 26.7069 25.4119 26.7069 25.6089V35.2614C26.7069 35.4584 26.5582 35.6554 26.36 35.6554ZM17.9862 34.9166H26.0132V25.9536H17.9862V34.9166Z" fill="#004E97"/>
<path d="M26.7071 16.1035H17.2926C17.0944 16.1035 16.9458 15.9558 16.9458 15.7588C16.9458 15.5618 17.0944 15.4141 17.2926 15.4141H26.7071C26.9053 15.4141 27.0539 15.5618 27.0539 15.7588C27.1035 15.9065 26.9053 16.1035 26.7071 16.1035Z" fill="#004E97"/>
<path d="M26.7071 19.3047H17.2926C17.0944 19.3047 16.9458 19.1569 16.9458 18.96C16.9458 18.763 17.0944 18.6152 17.2926 18.6152H26.7071C26.9053 18.6152 27.0539 18.763 27.0539 18.96C27.1035 19.1569 26.9053 19.3047 26.7071 19.3047Z" fill="#004E97"/>
<path d="M26.7071 22.5059H17.2926C17.0944 22.5059 16.9458 22.3581 16.9458 22.1611C16.9458 21.9641 17.0944 21.8164 17.2926 21.8164H26.7071C26.9053 21.8164 27.0539 21.9641 27.0539 22.1611C27.1035 22.3581 26.9053 22.5059 26.7071 22.5059Z" fill="#004E97"/>
<path d="M43.6534 35.6552H31.3156C31.1174 35.6552 30.9688 35.5074 30.9688 35.3104V20.9302C30.9688 20.7332 31.1174 20.5854 31.3156 20.5854H43.6534C43.8516 20.5854 44.0003 20.7332 44.0003 20.9302V35.2612C44.0003 35.4582 43.8516 35.6552 43.6534 35.6552ZM31.6624 34.9164H43.3066V21.2257H31.6624V34.9164Z" fill="#004E97"/>
<path d="M36.0719 26.6432H33.6935C33.4953 26.6432 33.3467 26.4954 33.3467 26.2985V23.5898C33.3467 23.3929 33.4953 23.2451 33.6935 23.2451H36.0719C36.2701 23.2451 36.4188 23.3929 36.4188 23.5898V26.2985C36.4188 26.4462 36.2701 26.6432 36.0719 26.6432ZM34.0404 25.9045H35.7251V23.8853H34.0404V25.9045Z" fill="#004E97"/>
<path d="M41.3243 26.6432H38.946C38.7478 26.6432 38.5991 26.4954 38.5991 26.2985V23.5898C38.5991 23.3929 38.7478 23.2451 38.946 23.2451H41.3243C41.5225 23.2451 41.6712 23.3929 41.6712 23.5898V26.2985C41.6712 26.4462 41.5225 26.6432 41.3243 26.6432ZM39.2928 25.9045H40.9775V23.8853H39.2928V25.9045Z" fill="#004E97"/>
<path d="M36.0719 32.3063H33.6935C33.4953 32.3063 33.3467 32.1585 33.3467 31.9615V29.2529C33.3467 29.0559 33.4953 28.9082 33.6935 28.9082H36.0719C36.2701 28.9082 36.4188 29.0559 36.4188 29.2529V31.9615C36.4188 32.1093 36.2701 32.3063 36.0719 32.3063ZM34.0404 31.5676H35.7251V29.5484H34.0404V31.5676Z" fill="#004E97"/>
<path d="M41.3243 32.3063H38.946C38.7478 32.3063 38.5991 32.1585 38.5991 31.9615V29.2529C38.5991 29.0559 38.7478 28.9082 38.946 28.9082H41.3243C41.5225 28.9082 41.6712 29.0559 41.6712 29.2529V31.9615C41.6712 32.1093 41.5225 32.3063 41.3243 32.3063ZM39.2928 31.5676H40.9775V29.5484H39.2928V31.5676Z" fill="#004E97"/>
<path d="M12.6847 35.6552H0.346849C0.148651 35.6552 0 35.5074 0 35.3104V20.9302C0 20.7332 0.148651 20.5854 0.346849 20.5854H12.6847C12.8829 20.5854 13.0315 20.7332 13.0315 20.9302V35.2612C13.0315 35.4582 12.8829 35.6552 12.6847 35.6552ZM0.693694 34.9164H12.3378V21.2257H0.693694V34.9164Z" fill="#004E97"/>
<path d="M5.10364 26.6432H2.72526C2.52707 26.6432 2.37842 26.4954 2.37842 26.2985V23.5898C2.37842 23.3929 2.52707 23.2451 2.72526 23.2451H5.10364C5.30184 23.2451 5.45049 23.3929 5.45049 23.5898V26.2985C5.45049 26.4462 5.30184 26.6432 5.10364 26.6432ZM3.07211 25.9045H4.7568V23.8853H3.07211V25.9045Z" fill="#004E97"/>
<path d="M10.3561 26.6432H7.97771C7.77951 26.6432 7.63086 26.4954 7.63086 26.2985V23.5898C7.63086 23.3929 7.77951 23.2451 7.97771 23.2451H10.3561C10.5543 23.2451 10.7029 23.3929 10.7029 23.5898V26.2985C10.7029 26.4462 10.5543 26.6432 10.3561 26.6432ZM8.32455 25.9045H10.0092V23.8853H8.32455V25.9045Z" fill="#004E97"/>
<path d="M5.10364 32.3063H2.72526C2.52707 32.3063 2.37842 32.1585 2.37842 31.9615V29.2529C2.37842 29.0559 2.52707 28.9082 2.72526 28.9082H5.10364C5.30184 28.9082 5.45049 29.0559 5.45049 29.2529V31.9615C5.45049 32.1093 5.30184 32.3063 5.10364 32.3063ZM3.07211 31.5676H4.7568V29.5484H3.07211V31.5676Z" fill="#004E97"/>
<path d="M10.3561 32.3063H7.97771C7.77951 32.3063 7.63086 32.1585 7.63086 31.9615V29.2529C7.63086 29.0559 7.77951 28.9082 7.97771 28.9082H10.3561C10.5543 28.9082 10.7029 29.0559 10.7029 29.2529V31.9615C10.7029 32.1093 10.5543 32.3063 10.3561 32.3063ZM8.32455 31.5676H10.0092V29.5484H8.32455V31.5676Z" fill="#004E97"/>
</svg>
