<svg width="30" height="36" viewBox="0 0 30 36" fill="none" xmlns="http://www.w3.org/2000/svg">
<path d="M27.2629 33.9371H2.66966C1.17303 33.9371 0 32.7236 0 31.227V2.7101C0 1.21346 1.21347 0 2.66966 0H27.2629C28.7596 0 29.9326 1.21346 29.9326 2.7101V31.227C29.9326 32.7236 28.7596 33.9371 27.2629 33.9371ZM2.66966 0.606742C1.49662 0.606742 0.566278 1.53706 0.566278 2.7101V31.227C0.566278 32.4 1.49662 33.3304 2.66966 33.3304H27.2629C28.436 33.3304 29.3663 32.4 29.3663 31.227V2.7101C29.3663 1.53706 28.436 0.606742 27.2629 0.606742H2.66966Z" fill="#004E97"/>
<path d="M26.9796 13.2268H2.95258C2.79079 13.2268 2.66943 13.1055 2.66943 12.9437V4.24702C2.66943 4.08522 2.79079 3.96387 2.95258 3.96387H26.9796C27.1414 3.96387 27.2627 4.08522 27.2627 4.24702V12.9437C27.2627 13.1055 27.1414 13.2268 26.9796 13.2268ZM3.23574 12.62H26.6964V4.48971H3.23574V12.62Z" fill="#004E97"/>
<path d="M8.53485 18.8899H3.84272C3.68092 18.8899 3.55957 18.7686 3.55957 18.6068V15.7753C3.55957 15.6135 3.68092 15.4922 3.84272 15.4922H8.53485C8.69665 15.4922 8.818 15.6135 8.818 15.7753V18.6068C8.85845 18.7686 8.69665 18.8899 8.53485 18.8899ZM4.16631 18.2832H8.2517V16.0585H4.16631V18.2832Z" fill="#004E97"/>
<path d="M17.3127 18.8899H12.6205C12.4587 18.8899 12.3374 18.7686 12.3374 18.6068V15.7753C12.3374 15.6135 12.4587 15.4922 12.6205 15.4922H17.3127C17.4745 15.4922 17.5958 15.6135 17.5958 15.7753V18.6068C17.5958 18.7686 17.4745 18.8899 17.3127 18.8899ZM12.9037 18.2832H17.0295V16.0585H12.9441V18.2832H12.9037Z" fill="#004E97"/>
<path d="M26.0495 18.8899H21.3574C21.1956 18.8899 21.0742 18.7686 21.0742 18.6068V15.7753C21.0742 15.6135 21.1956 15.4922 21.3574 15.4922H26.0495C26.2113 15.4922 26.3327 15.6135 26.3327 15.7753V18.6068C26.3731 18.7686 26.2113 18.8899 26.0495 18.8899ZM21.681 18.2832H25.7663V16.0585H21.681V18.2832Z" fill="#004E97"/>
<path d="M8.53485 24.4314H3.84272C3.68092 24.4314 3.55957 24.3101 3.55957 24.1483V21.3168C3.55957 21.155 3.68092 21.0337 3.84272 21.0337H8.53485C8.69665 21.0337 8.818 21.155 8.818 21.3168V24.1483C8.85845 24.3101 8.69665 24.4314 8.53485 24.4314ZM4.16631 23.8652H8.2517V21.6404H4.16631V23.8652Z" fill="#004E97"/>
<path d="M17.3127 24.4314H12.6205C12.4587 24.4314 12.3374 24.3101 12.3374 24.1483V21.3168C12.3374 21.155 12.4587 21.0337 12.6205 21.0337H17.3127C17.4745 21.0337 17.5958 21.155 17.5958 21.3168V24.1483C17.5958 24.3101 17.4745 24.4314 17.3127 24.4314ZM12.9037 23.8652H17.0295V21.6404H12.9441V23.8652H12.9037Z" fill="#004E97"/>
<path d="M26.0495 30.0135H21.3574C21.1956 30.0135 21.0742 29.8922 21.0742 29.7304V21.3574C21.0742 21.1956 21.1956 21.0742 21.3574 21.0742H26.0495C26.2113 21.0742 26.3327 21.1956 26.3327 21.3574V29.7304C26.3731 29.8518 26.2113 30.0135 26.0495 30.0135ZM21.681 29.4068H25.7663V21.6001H21.681V29.4068Z" fill="#004E97"/>
<path d="M8.53485 30.0135H3.84272C3.68092 30.0135 3.55957 29.8921 3.55957 29.7303V26.8989C3.55957 26.7371 3.68092 26.6157 3.84272 26.6157H8.53485C8.69665 26.6157 8.818 26.7371 8.818 26.8989V29.7303C8.85845 29.8517 8.69665 30.0135 8.53485 30.0135ZM4.16631 29.4067H8.2517V27.182H4.16631V29.4067Z" fill="#004E97"/>
<path d="M17.3127 30.0135H12.6205C12.4587 30.0135 12.3374 29.8921 12.3374 29.7303V26.8989C12.3374 26.7371 12.4587 26.6157 12.6205 26.6157H17.3127C17.4745 26.6157 17.5958 26.7371 17.5958 26.8989V29.7303C17.5958 29.8517 17.4745 30.0135 17.3127 30.0135ZM12.9037 29.4067H17.0295V27.182H12.9441V29.4067H12.9037Z" fill="#004E97"/>
<path d="M26.4942 36.0001H3.39752C2.18404 36.0001 1.13235 34.827 0.889648 33.2091C0.889648 33.0877 0.930108 32.9664 1.05146 32.9259C1.1728 32.845 1.29415 32.8855 1.37505 32.9259C1.73909 33.2091 2.18405 33.3709 2.629 33.3709H27.2223C27.6672 33.3709 28.1122 33.2091 28.4762 32.9259C28.5571 32.845 28.7189 32.845 28.7998 32.9259C28.9211 33.0068 28.9616 33.0877 28.9616 33.2091C28.7593 34.827 27.7077 36.0001 26.4942 36.0001ZM1.6582 33.7349C1.98179 34.7461 2.66945 35.3933 3.43799 35.3933H26.5346C27.3032 35.3933 27.9908 34.7057 28.274 33.7349C27.9504 33.8562 27.6268 33.9371 27.2627 33.9371H2.66944C2.30539 33.9371 1.98179 33.8562 1.6582 33.7349Z" fill="#004E97"/>
<path d="M6.75519 11.8113C5.82485 11.8113 5.13721 10.436 5.13721 8.57531C5.13721 6.71464 5.82485 5.33936 6.75519 5.33936C7.68552 5.33936 8.37317 6.71464 8.37317 8.57531C8.33272 10.436 7.64507 11.8113 6.75519 11.8113ZM6.75519 5.9461C6.35069 5.9461 5.74395 6.95733 5.74395 8.57531C5.74395 10.2337 6.35069 11.2045 6.75519 11.2045C7.24058 11.2045 7.76642 10.0719 7.76642 8.57531C7.76642 7.07868 7.24058 5.9461 6.75519 5.9461Z" fill="#004E97"/>
<path d="M11.8109 11.8113C10.8805 11.8113 10.1929 10.436 10.1929 8.57531C10.1929 6.71464 10.8805 5.33936 11.8109 5.33936C12.7412 5.33936 13.4288 6.71464 13.4288 8.57531C13.4288 10.436 12.7412 11.8113 11.8109 11.8113ZM11.8109 5.9461C11.3255 5.9461 10.7996 7.07868 10.7996 8.57531C10.7996 10.0719 11.3255 11.2045 11.8109 11.2045C12.2962 11.2045 12.8221 10.0719 12.8221 8.57531C12.8221 7.07868 12.2962 5.9461 11.8109 5.9461Z" fill="#004E97"/>
<path d="M16.867 11.8113C15.9367 11.8113 15.249 10.436 15.249 8.57531C15.249 6.71464 15.9367 5.33936 16.867 5.33936C17.7973 5.33936 18.485 6.71464 18.485 8.57531C18.485 10.436 17.7973 11.8113 16.867 11.8113ZM16.867 5.9461C16.3816 5.9461 15.8558 7.07868 15.8558 8.57531C15.8558 10.0719 16.3816 11.2045 16.867 11.2045C17.3524 11.2045 17.8782 10.0719 17.8782 8.57531C17.8782 7.07868 17.3524 5.9461 16.867 5.9461Z" fill="#004E97"/>
</svg>
