<svg width="33" height="32" viewBox="0 0 33 32" fill="none" xmlns="http://www.w3.org/2000/svg">
<path d="M15.8187 32.0002C15.7463 32.0002 15.7102 31.964 15.6378 31.9278L5.28484 23.1314C5.21244 23.059 5.17624 22.9504 5.21244 22.8418L9.15813 8.57943C9.19433 8.47084 9.30293 8.39844 9.41153 8.39844H22.226C22.3346 8.39844 22.4432 8.47084 22.4794 8.57943L26.4251 22.8418C26.4613 22.9504 26.4251 23.059 26.3527 23.1314L15.9997 31.9278C15.9273 31.964 15.8911 32.0002 15.8187 32.0002ZM5.75543 22.8056L15.8187 31.3486L25.8821 22.8056L22.0088 8.90522H9.59253L5.75543 22.8056Z" fill="#004E97"/>
<path d="M15.8188 32.0001C15.674 32.0001 15.5654 31.8915 15.5654 31.7467V20.1992C15.5654 20.0544 15.674 19.9458 15.8188 19.9458C15.9636 19.9458 16.0722 20.0544 16.0722 20.1992V31.7105C16.0722 31.8553 15.9636 32.0001 15.8188 32.0001Z" fill="#004E97"/>
<path d="M15.8188 20.4526C14.4794 20.4526 13.4297 19.3666 13.4297 18.0634C13.4297 16.7241 14.5156 15.6743 15.8188 15.6743C17.1582 15.6743 18.208 16.7603 18.208 18.0634C18.208 19.3666 17.1582 20.4526 15.8188 20.4526ZM15.8188 16.1811C14.769 16.1811 13.9365 17.0137 13.9365 18.0634C13.9365 19.1132 14.769 19.9458 15.8188 19.9458C16.8686 19.9458 17.7012 19.1132 17.7012 18.0634C17.7012 17.0137 16.8686 16.1811 15.8188 16.1811Z" fill="#004E97"/>
<path d="M24.8691 8.90496H6.73337C6.58858 8.90496 6.47998 8.79636 6.47998 8.65156V0.253397C6.47998 0.108601 6.58858 0 6.73337 0H24.8691C25.0139 0 25.1225 0.108601 25.1225 0.253397V8.65156C25.1587 8.79636 25.0139 8.90496 24.8691 8.90496ZM7.02297 8.39817H24.6157V0.506784H7.02297V8.39817Z" fill="#004E97"/>
<path d="M24.8691 8.9046H6.73337C6.58858 8.9046 6.47998 8.796 6.47998 8.6512V4.45213C6.47998 4.30733 6.58858 4.19873 6.73337 4.19873H24.8691C25.0139 4.19873 25.1225 4.30733 25.1225 4.45213V8.6512C25.1587 8.796 25.0139 8.9046 24.8691 8.9046ZM7.02297 8.39782H24.6157V4.70551H7.02297V8.39782Z" fill="#004E97"/>
<path d="M24.5068 31.9638H7.16745C7.02266 31.9638 6.91406 31.8552 6.91406 31.7104C6.91406 31.5656 7.02266 31.457 7.16745 31.457H24.5068C24.6516 31.457 24.7602 31.5656 24.7602 31.7104C24.7602 31.8552 24.6516 31.9638 24.5068 31.9638Z" fill="#004E97"/>
<path d="M3.18551 17.0136C3.07691 17.0136 2.96832 16.9412 2.93212 16.8326L2.28053 14.7331L0.180995 14.0815C0.072398 14.0453 0 13.9367 0 13.8281C0 13.7195 0.072398 13.6109 0.180995 13.5747L2.28053 12.9231L2.93212 10.8236C2.96832 10.715 3.07691 10.6426 3.18551 10.6426C3.29411 10.6426 3.40271 10.715 3.43891 10.8236L4.09048 12.9231L6.19003 13.5747C6.29862 13.6109 6.37102 13.7195 6.37102 13.8281C6.37102 13.9367 6.29862 14.0453 6.19003 14.0815L4.09048 14.7331L3.43891 16.8326C3.40271 16.9412 3.29411 17.0136 3.18551 17.0136ZM1.15837 13.8281L2.57013 14.2625C2.64252 14.2987 2.71492 14.3711 2.75112 14.4435L3.18551 15.8552L3.6199 14.4435C3.6561 14.3711 3.7285 14.2987 3.8009 14.2625L5.21265 13.8281L3.8009 13.3937C3.7285 13.3575 3.6561 13.2851 3.6199 13.2127L3.18551 11.801L2.75112 13.2127C2.71492 13.2851 2.64252 13.3575 2.57013 13.3937L1.15837 13.8281Z" fill="#004E97"/>
<path d="M28.9956 28.8505C28.887 28.8505 28.7784 28.7781 28.7422 28.6695L28.0906 26.57L25.9911 25.9184C25.8825 25.8822 25.8101 25.7736 25.8101 25.665C25.8101 25.5564 25.8825 25.4478 25.9911 25.4116L28.0906 24.76L28.7422 22.6605C28.7784 22.5519 28.887 22.4795 28.9956 22.4795C29.1042 22.4795 29.2128 22.5519 29.249 22.6605L29.9006 24.76L32.0001 25.4116C32.1087 25.4478 32.1811 25.5564 32.1811 25.665C32.1811 25.7736 32.1087 25.8822 32.0001 25.9184L29.9006 26.57L29.249 28.6695C29.2128 28.7781 29.1404 28.8505 28.9956 28.8505ZM27.0046 25.7012L28.4164 26.1356C28.4888 26.1718 28.5612 26.2442 28.5974 26.3166L29.0318 27.7283L29.4662 26.3166C29.5024 26.2442 29.5748 26.1718 29.6472 26.1356L31.0589 25.7012L29.6472 25.2668C29.5748 25.2306 29.5024 25.1582 29.4662 25.0858L29.0318 23.6741L28.5974 25.0858C28.5612 25.1582 28.4888 25.2306 28.4164 25.2668L27.0046 25.7012Z" fill="#004E97"/>
</svg>
