<svg width="32" height="32" viewBox="0 0 32 32" fill="none" xmlns="http://www.w3.org/2000/svg">
<path d="M15.9637 14.1666C13.9861 14.1666 12.3682 12.5486 12.3682 10.5711C12.3682 8.59356 13.9861 6.97559 15.9637 6.97559C17.9412 6.97559 19.5232 8.59356 19.5232 10.5711C19.5232 12.5486 17.9412 14.1666 15.9637 14.1666ZM15.9637 7.51491C14.2738 7.51491 12.9075 8.8812 12.9075 10.5711C12.9075 12.261 14.2738 13.6273 15.9637 13.6273C17.6536 13.6273 19.0198 12.261 19.0198 10.5711C19.0198 8.8812 17.6536 7.51491 15.9637 7.51491Z" fill="#004E97"/>
<path d="M15.964 14.1663C14.8135 14.1663 13.7348 13.627 13.0876 12.6922C13.0157 12.5843 13.0157 12.4405 13.0876 12.3686C13.8067 11.5416 14.8494 11.0742 15.964 11.0742C17.0786 11.0742 18.1213 11.5416 18.8404 12.3686C18.9123 12.4765 18.9123 12.5843 18.8404 12.6922C18.1932 13.5911 17.1146 14.1663 15.964 14.1663ZM13.6269 12.5484C14.2022 13.2315 15.0652 13.627 15.964 13.627C16.8629 13.627 17.7258 13.2315 18.3011 12.5484C17.6899 11.9371 16.8629 11.5776 15.964 11.5776C15.1011 11.5776 14.2382 11.9371 13.6269 12.5484Z" fill="#004E97"/>
<path d="M15.9642 11.1461C15.0653 11.1461 14.3462 10.427 14.3462 9.52813C14.3462 8.62926 15.0653 7.91016 15.9642 7.91016C16.863 7.91016 17.5821 8.62926 17.5821 9.52813C17.5821 10.427 16.863 11.1461 15.9642 11.1461ZM15.9642 8.44948C15.3529 8.44948 14.8496 8.95284 14.8496 9.56408C14.8496 10.1753 15.3529 10.6787 15.9642 10.6787C16.5754 10.6787 17.0788 10.1753 17.0788 9.56408C17.0788 8.91689 16.5754 8.44948 15.9642 8.44948Z" fill="#004E97"/>
<path d="M10.8584 25.025C8.88085 25.025 7.29883 23.407 7.29883 21.4295C7.29883 19.452 8.9168 17.834 10.8584 17.834C12.8359 17.834 14.4179 19.452 14.4179 21.4295C14.4179 23.443 12.8359 25.025 10.8584 25.025ZM10.8584 18.4093C9.16849 18.4093 7.8022 19.7755 7.8022 21.4654C7.8022 23.1553 9.16849 24.5216 10.8584 24.5216C12.5483 24.5216 13.9146 23.1553 13.9146 21.4654C13.9146 19.7755 12.5483 18.4093 10.8584 18.4093Z" fill="#004E97"/>
<path d="M10.8586 25.0247C9.708 25.0247 8.62935 24.4854 7.98216 23.5506C7.91025 23.4427 7.91025 23.2989 7.98216 23.227C8.70126 22.4 9.74395 21.9326 10.8586 21.9326C11.9732 21.9326 13.0159 22.4 13.735 23.227C13.8069 23.3349 13.8069 23.4427 13.735 23.5506C13.0518 24.4854 11.9732 25.0247 10.8586 25.0247ZM8.52148 23.4427C9.09676 24.1259 9.95968 24.5214 10.8586 24.5214C11.7574 24.5214 12.6204 24.1259 13.1956 23.4427C12.5844 22.8315 11.7574 22.4719 10.8586 22.4719C9.95968 22.4719 9.13272 22.7955 8.52148 23.4427Z" fill="#004E97"/>
<path d="M10.8582 22.0406C9.95934 22.0406 9.24023 21.3215 9.24023 20.4227C9.24023 19.5238 9.95934 18.8047 10.8582 18.8047C11.7571 18.8047 12.4762 19.5238 12.4762 20.4227C12.4762 21.3215 11.7571 22.0406 10.8582 22.0406ZM10.8582 19.308C10.247 19.308 9.74361 19.8114 9.74361 20.4227C9.74361 21.0339 10.247 21.5373 10.8582 21.5373C11.4694 21.5373 11.9728 21.0339 11.9728 20.4227C11.9369 19.8114 11.4694 19.308 10.8582 19.308Z" fill="#004E97"/>
<path d="M21.0693 25.025C19.0918 25.025 17.5098 23.407 17.5098 21.4295C17.5098 19.452 19.1278 17.834 21.0693 17.834C23.0469 17.834 24.6289 19.452 24.6289 21.4295C24.6648 23.443 23.0469 25.025 21.0693 25.025ZM21.0693 18.4093C19.3794 18.4093 18.0131 19.7755 18.0131 21.4654C18.0131 23.1553 19.3794 24.5216 21.0693 24.5216C22.7592 24.5216 24.1255 23.1553 24.1255 21.4654C24.1255 19.7755 22.7592 18.4093 21.0693 18.4093Z" fill="#004E97"/>
<path d="M21.0695 25.0247C19.9189 25.0247 18.8403 24.4854 18.1931 23.5506C18.1212 23.4427 18.1212 23.2989 18.1931 23.227C18.9122 22.4 19.9549 21.9326 21.0695 21.9326C22.1841 21.9326 23.2268 22.4 23.9459 23.227C24.0178 23.3349 24.0178 23.4427 23.9459 23.5506C23.2987 24.4854 22.2201 25.0247 21.0695 25.0247ZM18.7324 23.4427C19.3077 24.1259 20.1706 24.5214 21.0695 24.5214C21.9684 24.5214 22.8313 24.1259 23.4066 23.4427C22.7953 22.8315 21.9684 22.4719 21.0695 22.4719C20.2066 22.4719 19.3437 22.7955 18.7324 23.4427Z" fill="#004E97"/>
<path d="M21.0696 22.0406C20.1708 22.0406 19.4517 21.3215 19.4517 20.4227C19.4517 19.5238 20.1708 18.8047 21.0696 18.8047C21.9685 18.8047 22.6876 19.5238 22.6876 20.4227C22.6876 21.3215 21.9685 22.0406 21.0696 22.0406ZM21.0696 19.308C20.4584 19.308 19.955 19.8114 19.955 20.4227C19.955 21.0339 20.4584 21.5373 21.0696 21.5373C21.6809 21.5373 22.1842 21.0339 22.1842 20.4227C22.1842 19.8114 21.6809 19.308 21.0696 19.308Z" fill="#004E97"/>
<path d="M10.8583 18.4091C10.7504 18.4091 10.6785 18.3372 10.6066 18.2653C10.5347 18.1215 10.6066 17.9777 10.7144 17.9058L15.6762 15.5327V13.9148C15.6762 13.7709 15.7841 13.6631 15.9279 13.6631C16.0717 13.6631 16.1796 13.7709 16.1796 13.9148V15.7125C16.1796 15.8204 16.1077 15.8923 16.0358 15.9642L10.9302 18.4091C10.9302 18.4091 10.8942 18.4091 10.8583 18.4091Z" fill="#004E97"/>
<path d="M21.0692 18.409C21.0333 18.409 20.9973 18.409 20.9614 18.373L15.8557 15.9281C15.7479 15.8921 15.7119 15.7843 15.7119 15.6764V13.8786C15.7119 13.7348 15.8198 13.627 15.9636 13.627C16.1074 13.627 16.2153 13.7348 16.2153 13.8786V15.4966L21.1771 17.8696C21.3209 17.9416 21.3569 18.0854 21.2849 18.2292C21.2849 18.3371 21.1771 18.409 21.0692 18.409Z" fill="#004E97"/>
<path d="M15.9639 29.5553C8.52123 29.5553 2.44482 23.4789 2.44482 16.0362C2.44482 12.4047 3.84707 9.02496 6.39988 6.47215C8.95269 3.91934 12.3325 2.51709 15.9639 2.51709C23.4066 2.51709 29.483 8.59349 29.483 16.0362C29.483 23.4789 23.4066 29.5553 15.9639 29.5553ZM15.9639 3.02045C8.80887 3.02045 2.98415 8.84517 2.98415 16.0362C2.98415 23.1912 8.80887 29.0519 15.9639 29.0519C23.119 29.0519 28.9437 23.2272 28.9437 16.0362C28.9437 8.84517 23.119 3.02045 15.9639 3.02045Z" fill="#004E97"/>
<path d="M15.964 32C11.6854 32 7.69438 30.3461 4.67416 27.3258C1.65393 24.3056 0 20.2787 0 16C0 11.7213 1.65393 7.69438 4.67416 4.67416C7.69438 1.65393 11.7213 0 15.964 0C20.2427 0 24.2337 1.65393 27.2539 4.67416C30.2742 7.69438 31.9281 11.7213 31.9281 16C31.9281 20.2787 30.2742 24.3056 27.2539 27.3258C24.2337 30.3461 20.2427 32 15.964 32ZM15.964 0.539326C7.44269 0.539326 0.503369 7.47865 0.503369 16C0.503369 24.5213 7.44269 31.4607 15.964 31.4607C24.4854 31.4607 31.4247 24.5213 31.4247 16C31.4247 7.47865 24.4854 0.539326 15.964 0.539326Z" fill="#004E97"/>
</svg>
