<svg width="44" height="32" viewBox="0 0 44 32" fill="none" xmlns="http://www.w3.org/2000/svg">
<path d="M17.0541 17.6295C17.0047 17.6295 16.9059 17.6295 16.8565 17.5802L10.5356 13.9258C10.3874 13.8271 10.2886 13.6296 10.3874 13.432L16.1652 3.45675C16.2145 3.35799 16.3133 3.30859 16.3627 3.30859C16.4615 3.30859 16.5602 3.3086 16.659 3.35798L22.98 7.01229C23.1281 7.11105 23.2269 7.30858 23.1281 7.50611L17.3503 17.4814C17.301 17.5802 17.2022 17.6295 17.1528 17.6295C17.1528 17.6295 17.1034 17.6295 17.0541 17.6295ZM11.2269 13.4814L16.9059 16.79L22.2886 7.40736L16.6096 4.09872L11.2269 13.4814Z" fill="#004E97"/>
<path d="M17.4493 20.9383C17.3999 20.9383 17.3011 20.9383 17.2517 20.8889L7.52335 15.2593C7.3752 15.1605 7.27644 14.963 7.37521 14.7655L8.70854 12.4445C8.75792 12.3457 8.8567 12.2963 8.90608 12.2963C9.00485 12.247 9.1036 12.2963 9.20237 12.3457L18.9307 17.9753C19.0789 18.0741 19.1776 18.2716 19.0789 18.4692L17.7455 20.7901C17.6962 20.8889 17.5974 20.9383 17.548 20.9383C17.4987 20.9383 17.4986 20.9383 17.4493 20.9383ZM8.21472 14.8148L17.3505 20.0988L18.3381 18.4198L9.20237 13.1358L8.21472 14.8148Z" fill="#004E97"/>
<path d="M24.5601 8.64195C24.5107 8.64195 24.4119 8.64195 24.3626 8.59257L14.6342 2.96295C14.486 2.86419 14.3873 2.66666 14.486 2.46913L15.8194 0.148142C15.8688 0.0493765 15.9675 0 16.0169 0C16.1157 0 16.2144 -1.2057e-05 16.3132 0.0493705L26.0416 5.679C26.1897 5.77776 26.2885 5.97529 26.1897 6.17282L24.8564 8.49379C24.807 8.59256 24.7082 8.64195 24.6588 8.64195C24.6095 8.64195 24.5601 8.64195 24.5601 8.64195ZM15.2762 2.5185L24.4119 7.80244L25.3996 6.12344L16.2638 0.839495L15.2762 2.5185Z" fill="#004E97"/>
<path d="M20.8563 16.395C20.8069 16.395 20.7082 16.395 20.6588 16.3456L18.3378 15.0123C18.1897 14.9135 18.0909 14.716 18.1897 14.5185L21.0045 9.6296C21.0539 9.53084 21.1526 9.48145 21.202 9.48145C21.3007 9.48145 21.3995 9.48145 21.4983 9.53083L23.8193 10.8642C23.9674 10.9629 24.0662 11.1605 23.9674 11.358L21.1526 16.2469C21.1032 16.3456 21.0045 16.395 20.9551 16.395C20.9057 16.395 20.8563 16.395 20.8563 16.395ZM19.0292 14.5679L20.7082 15.5555L23.1773 11.2592L21.4983 10.2716L19.0292 14.5679Z" fill="#004E97"/>
<path d="M40.2142 27.753C39.5722 27.753 38.9303 27.5555 38.387 27.2098L21.2019 15.4568C21.0538 15.358 21.0044 15.1605 21.1031 14.9629L22.8315 11.9506C22.9303 11.8024 23.1278 11.7037 23.276 11.8025L42.0414 20.8395C42.8809 21.2345 43.4735 21.9753 43.7698 22.8641C44.0661 23.8518 43.9673 24.9876 43.4241 25.8765C42.7821 27.0123 41.4982 27.753 40.2142 27.753ZM21.8439 15.0123L38.7821 26.5678C39.1772 26.8641 39.671 27.0123 40.2142 27.0123C41.2512 27.0123 42.2883 26.4197 42.8315 25.4814C43.2759 24.7407 43.3747 23.8518 43.1278 23.0123C42.9303 22.2715 42.4364 21.7283 41.7945 21.4321L23.3254 12.5432L21.8439 15.0123Z" fill="#004E97"/>
<path d="M36.3621 25.7281C36.3128 25.7281 36.214 25.7281 36.1646 25.6787L32.6585 23.3083C32.5103 23.2096 32.4609 23.012 32.5597 22.8145L35.3745 17.975C35.4733 17.8269 35.6708 17.7281 35.819 17.8269L39.6214 19.654C39.7202 19.7034 39.7695 19.7528 39.8189 19.8516C39.8683 19.9503 39.8189 20.0491 39.7696 20.1479L36.6584 25.5305C36.609 25.6293 36.5103 25.6787 36.4115 25.6787C36.4115 25.7281 36.4115 25.7281 36.3621 25.7281ZM33.3498 22.8639L36.2634 24.8392L38.9794 20.0985L35.819 18.5676L33.3498 22.8639Z" fill="#004E97"/>
<path d="M20.8072 27.4567H3.27635C3.07882 27.4567 2.93066 27.3085 2.93066 27.111V22.6172C2.93066 22.4196 3.07882 22.2715 3.27635 22.2715H20.8565C21.0541 22.2715 21.2022 22.4196 21.2022 22.6172V27.111C21.1528 27.3085 21.0047 27.4567 20.8072 27.4567ZM3.62203 26.7653H20.4615V22.9629H3.62203V26.7653Z" fill="#004E97"/>
<path d="M23.6713 32.0001H0.41209C0.21456 32.0001 0.0664062 31.852 0.0664062 31.6544V27.1606C0.0664062 26.9631 0.21456 26.8149 0.41209 26.8149H23.6713C23.8688 26.8149 24.017 26.9631 24.017 27.1606V31.6544C24.017 31.8026 23.8688 32.0001 23.6713 32.0001ZM0.757774 31.2594H23.3256V27.4569H0.757774V31.2594Z" fill="#004E97"/>
</svg>
