<svg width="32" height="32" viewBox="0 0 32 32" fill="none" xmlns="http://www.w3.org/2000/svg">
<path d="M5.33398 17.333C7.71144 17.6156 9.92471 18.6897 11.6177 20.3827C13.3106 22.0756 14.3848 24.2889 14.6673 26.6663C15.8459 25.9869 16.8317 25.0181 17.5316 23.8516C18.2315 22.6851 18.6224 21.3593 18.6673 19.9997C20.9061 19.2121 22.8611 17.7783 24.2851 15.8797C25.7091 13.981 26.5381 11.7028 26.6673 9.33301C26.6673 8.27214 26.2459 7.25473 25.4957 6.50458C24.7456 5.75444 23.7282 5.33301 22.6673 5.33301C20.2975 5.46222 18.0193 6.29123 16.1206 7.71521C14.222 9.13919 12.7882 11.0942 12.0007 13.333C10.641 13.3779 9.31526 13.7688 8.14874 14.4687C6.98221 15.1686 6.01344 16.1544 5.33398 17.333" stroke="#004E97" stroke-width="2" stroke-linecap="round" stroke-linejoin="round"/>
<path d="M9.33267 18.667C7.94498 19.4504 6.82288 20.6304 6.11021 22.0558C5.39755 23.4811 5.1268 25.0868 5.33267 26.667C6.91288 26.8729 8.51857 26.6021 9.9439 25.8895C11.3692 25.1768 12.5492 24.0547 13.3327 22.667" stroke="#004E97" stroke-width="2" stroke-linecap="round" stroke-linejoin="round"/>
<path d="M19.9993 13.3337C20.7357 13.3337 21.3327 12.7367 21.3327 12.0003C21.3327 11.2639 20.7357 10.667 19.9993 10.667C19.263 10.667 18.666 11.2639 18.666 12.0003C18.666 12.7367 19.263 13.3337 19.9993 13.3337Z" fill="#004E97" stroke="#004E97" stroke-width="2" stroke-linecap="round" stroke-linejoin="round"/>
</svg>
