<svg width="32" height="32" viewBox="0 0 32 32" fill="none" xmlns="http://www.w3.org/2000/svg">
<path d="M24.8889 12H7.11111C6.49746 12 6 12.4477 6 13V15C6 15.5523 6.49746 16 7.11111 16H24.8889C25.5025 16 26 15.5523 26 15V13C26 12.4477 25.5025 12 24.8889 12Z" stroke="#004E97" stroke-width="2" stroke-linecap="round" stroke-linejoin="round"/>
<path d="M16 12V26" stroke="#004E97" stroke-width="2" stroke-linecap="round" stroke-linejoin="round"/>
<path d="M24 16V23.7778C24 24.3671 23.7592 24.9324 23.3305 25.3491C22.9019 25.7659 22.3205 26 21.7143 26H10.2857C9.67951 26 9.09812 25.7659 8.66947 25.3491C8.24082 24.9324 8 24.3671 8 23.7778V16" stroke="#004E97" stroke-width="2" stroke-linecap="round" stroke-linejoin="round"/>
<path d="M10.8571 12C10.0994 12 9.37266 11.684 8.83684 11.1214C8.30102 10.5588 8 9.79584 8 9.00026C8 8.20468 8.30102 7.44169 8.83684 6.87913C9.37266 6.31657 10.0994 6.00052 10.8571 6.00052C11.9596 5.98036 13.04 6.54199 13.9574 7.61218C14.8748 8.68236 15.5866 10.2114 16 12C16.4134 10.2114 17.1252 8.68236 18.0426 7.61218C18.96 6.54199 20.0404 5.98036 21.1429 6.00052C21.9006 6.00052 22.6273 6.31657 23.1632 6.87913C23.699 7.44169 24 8.20468 24 9.00026C24 9.79584 23.699 10.5588 23.1632 11.1214C22.6273 11.684 21.9006 12 21.1429 12" stroke="#004E97" stroke-width="2" stroke-linecap="round" stroke-linejoin="round"/>
</svg>
